<svg width="28" height="27" viewBox="0 0 28 27" fill="none" xmlns="http://www.w3.org/2000/svg">
<g clip-path="url(#clip0_2117_1119)">
<path d="M15.1926 3.69347C14.8762 3.37745 14.4473 3.19995 14.0001 3.19995C13.5529 3.19995 13.124 3.37745 12.8076 3.69347L6.44119 10.0565C6.12462 10.373 5.94678 10.8024 5.94678 11.2501C5.94678 11.6978 6.12462 12.1271 6.44119 12.4437C6.75776 12.7603 7.18712 12.9381 7.63482 12.9381C8.08251 12.9381 8.51187 12.7603 8.82844 12.4437L12.3126 8.96072V21.9376C12.3126 22.3851 12.4904 22.8144 12.8068 23.1308C13.1233 23.4473 13.5525 23.6251 14.0001 23.6251C14.4476 23.6251 14.8768 23.4473 15.1933 23.1308C15.5098 22.8144 15.6876 22.3851 15.6876 21.9376V8.96072L19.1706 12.4437C19.3273 12.6005 19.5134 12.7248 19.7182 12.8096C19.923 12.8945 20.1425 12.9381 20.3642 12.9381C20.5859 12.9381 20.8054 12.8945 21.0102 12.8096C21.215 12.7248 21.4011 12.6005 21.5578 12.4437C21.7146 12.287 21.8389 12.1009 21.9237 11.8961C22.0086 11.6913 22.0522 11.4718 22.0522 11.2501C22.0522 11.0284 22.0086 10.8089 21.9237 10.6041C21.8389 10.3993 21.7146 10.2132 21.5578 10.0565L15.1926 3.69347Z" fill="white"/>
</g>
<defs>
<clipPath id="clip0_2117_1119">
<rect width="27" height="27" fill="white" transform="translate(0.5)"/>
</clipPath>
</defs>
</svg>
