<svg width="18" height="13" viewBox="0 0 18 13" fill="none" xmlns="http://www.w3.org/2000/svg">
<path d="M10.6667 0.166748C10.8824 0.166742 11.0897 0.250383 11.245 0.400082L11.3175 0.479248L14.4 4.33341H14.8333C15.471 4.33338 16.0846 4.57702 16.5486 5.01448C17.0125 5.45195 17.2918 6.05017 17.3292 6.68675L17.3333 6.83341V10.1667C17.3333 10.3878 17.2455 10.5997 17.0893 10.756C16.933 10.9123 16.721 11.0001 16.5 11.0001H15.5242C15.3517 11.4875 15.0323 11.9094 14.6101 12.2078C14.188 12.5062 13.6837 12.6664 13.1667 12.6664C12.6497 12.6664 12.1454 12.5062 11.7232 12.2078C11.301 11.9094 10.9817 11.4875 10.8092 11.0001H7.19083C7.01832 11.4875 6.699 11.9094 6.27681 12.2078C5.85463 12.5062 5.35034 12.6664 4.83333 12.6664C4.31633 12.6664 3.81204 12.5062 3.38986 12.2078C2.96767 11.9094 2.64835 11.4875 2.47583 11.0001H1.5C1.27899 11.0001 1.06703 10.9123 0.910746 10.756C0.754465 10.5997 0.666668 10.3878 0.666668 10.1667V5.16675L0.672501 5.06925L0.679168 5.02258L0.693335 4.95758L0.703335 4.92758L0.715001 4.88591L2.39333 0.690915C2.45511 0.53628 2.5618 0.4037 2.69964 0.310272C2.83748 0.216844 3.00015 0.166853 3.16667 0.166748H10.6667ZM4.83333 9.33341C4.61232 9.33341 4.40036 9.42121 4.24408 9.57749C4.0878 9.73377 4 9.94573 4 10.1667C4 10.3878 4.0878 10.5997 4.24408 10.756C4.40036 10.9123 4.61232 11.0001 4.83333 11.0001C5.05435 11.0001 5.26631 10.9123 5.42259 10.756C5.57887 10.5997 5.66667 10.3878 5.66667 10.1667C5.66667 9.94573 5.57887 9.73377 5.42259 9.57749C5.26631 9.42121 5.05435 9.33341 4.83333 9.33341ZM13.1667 9.33341C12.9457 9.33341 12.7337 9.42121 12.5774 9.57749C12.4211 9.73377 12.3333 9.94573 12.3333 10.1667C12.3333 10.3878 12.4211 10.5997 12.5774 10.756C12.7337 10.9123 12.9457 11.0001 13.1667 11.0001C13.3877 11.0001 13.5996 10.9123 13.7559 10.756C13.9122 10.5997 14 10.3878 14 10.1667C14 9.94573 13.9122 9.73377 13.7559 9.57749C13.5996 9.42121 13.3877 9.33341 13.1667 9.33341ZM8.16667 1.83341H3.73L2.73 4.33341H8.16667V1.83341ZM10.2667 1.83341H9.83333V4.33341H12.2667L10.2667 1.83341Z" fill="#71747B"/>
</svg>
