<svg width="33" height="33" viewBox="0 0 33 33" fill="none" xmlns="http://www.w3.org/2000/svg">
<path d="M20.8617 9.62504L11.806 18.6808C11.5433 18.9345 11.3338 19.2379 11.1897 19.5734C11.0456 19.9089 10.9697 20.2698 10.9665 20.6349C10.9633 21.0001 11.0329 21.3622 11.1712 21.7002C11.3095 22.0381 11.5137 22.3452 11.7719 22.6034C12.0301 22.8616 12.3371 23.0658 12.6751 23.2041C13.0131 23.3423 13.3752 23.4119 13.7403 23.4087C14.1055 23.4056 14.4663 23.3297 14.8018 23.1856C15.1373 23.0414 15.4408 22.8319 15.6945 22.5693L24.5137 13.5135C25.5156 12.4762 26.07 11.0869 26.0574 9.64484C26.0449 8.20275 25.4665 6.82328 24.4467 5.80354C23.427 4.7838 22.0475 4.20537 20.6054 4.19283C19.1633 4.1803 17.774 4.73467 16.7367 5.73654L7.91609 14.7909C6.36878 16.3382 5.49951 18.4368 5.49951 20.625C5.49951 22.8133 6.36878 24.9119 7.91609 26.4592C9.46339 28.0065 11.562 28.8757 13.7502 28.8757C15.9384 28.8757 18.037 28.0065 19.5843 26.4592L28.1877 17.875" stroke="white" stroke-width="2" stroke-linecap="round" stroke-linejoin="round"/>
</svg>
