<svg width="40" height="40" viewBox="0 0 40 40" fill="none" xmlns="http://www.w3.org/2000/svg">
<path d="M9.39334 30.6067C11.8474 33.0608 15.0766 34.588 18.5305 34.928C21.9844 35.268 25.4494 34.3998 28.3349 32.4713C31.2204 30.5428 33.3479 27.6735 34.3548 24.3521C35.3617 21.0308 35.1858 17.4631 33.857 14.2569C32.5281 11.0508 30.1286 8.40463 27.0674 6.76942C24.0061 5.13421 20.4726 4.61113 17.0689 5.28932C13.6652 5.96751 10.6019 7.805 8.40122 10.4887C6.20051 13.1723 4.99849 16.5361 5 20.0067V23.3334" stroke="white" stroke-width="1.5" stroke-linecap="round" stroke-linejoin="round"/>
<path d="M1.66675 19.9999L5.00008 23.3333L8.33341 19.9999M18.3334 13.3333V21.6666H26.6667" stroke="white" stroke-width="1.5" stroke-linecap="round" stroke-linejoin="round"/>
</svg>
