<svg width="20" height="20" viewBox="0 0 20 20" fill="none" xmlns="http://www.w3.org/2000/svg">
<path d="M15.8925 10.9517L11.1783 15.6667C10.8658 15.9791 10.4419 16.1546 10 16.1546C9.55806 16.1546 9.13421 15.9791 8.82166 15.6667L4.1075 10.9525C3.7178 10.5662 3.40825 10.1067 3.1966 9.60049C2.98496 9.09424 2.87539 8.55118 2.87419 8.00247C2.87298 7.45376 2.98017 6.91021 3.1896 6.40304C3.39903 5.89587 3.70657 5.43506 4.09456 5.04706C4.48256 4.65907 4.94337 4.35153 5.45054 4.1421C5.95772 3.93267 6.50126 3.82548 7.04997 3.82669C7.59868 3.82789 8.14174 3.93746 8.64799 4.1491C9.15424 4.36075 9.6137 4.6703 10 5.06C10.7846 4.29489 11.8391 3.86972 12.935 3.87658C14.0309 3.88345 15.08 4.3218 15.855 5.09668C16.63 5.87156 17.0685 6.92057 17.0755 8.01647C17.0825 9.11237 16.6575 10.1669 15.8925 10.9517Z" stroke="white" stroke-width="1.5" stroke-linecap="round" stroke-linejoin="round"/>
</svg>
