<svg width="20" height="20" viewBox="0 0 20 20" fill="none" xmlns="http://www.w3.org/2000/svg">
<path d="M15.8925 10.9517L11.1783 15.6667C10.8658 15.9791 10.4419 16.1547 10 16.1547C9.55806 16.1547 9.13421 15.9791 8.82166 15.6667L4.1075 10.9525C3.7178 10.5662 3.40825 10.1068 3.1966 9.60051C2.98496 9.09426 2.87539 8.55119 2.87419 8.00248C2.87298 7.45377 2.98017 6.91023 3.1896 6.40306C3.39903 5.89589 3.70657 5.43508 4.09456 5.04708C4.48256 4.65908 4.94337 4.35154 5.45054 4.14212C5.95772 3.93269 6.50126 3.8255 7.04997 3.8267C7.59868 3.8279 8.14174 3.93747 8.64799 4.14912C9.15424 4.36076 9.6137 4.67032 10 5.06001C10.7846 4.2949 11.8391 3.86973 12.935 3.8766C14.0309 3.88346 15.08 4.32182 15.855 5.0967C16.63 5.87158 17.0685 6.92059 17.0755 8.01649C17.0825 9.11239 16.6575 10.1669 15.8925 10.9517Z" fill="#FF2A69"/>
</svg>
